<svg xmlns="http://www.w3.org/2000/svg" width="54.699" height="54.699" viewBox="0 0 54.699 54.699"><defs><style>.a{fill:#fcb017;}</style></defs><path class="a" d="M237.137,348A2.137,2.137,0,0,0,235,350.137v9.081a2.137,2.137,0,1,0,4.273,0v-9.081A2.137,2.137,0,0,0,237.137,348Z" transform="translate(-209.894 -310.822)"/><path class="a" d="M2.137,12.82a2.137,2.137,0,0,0,2.137-2.137V4.273h6.41a2.137,2.137,0,1,0,0-4.273H2.137A2.137,2.137,0,0,0,0,2.137v8.547A2.137,2.137,0,0,0,2.137,12.82Z"/><path class="a" d="M83.137,348A2.137,2.137,0,0,0,81,350.137v3.739a2.137,2.137,0,0,0,4.273,0v-3.739A2.137,2.137,0,0,0,83.137,348Z" transform="translate(-72.347 -310.822)"/><path class="a" d="M10.683,400.547H4.273v-6.41a2.137,2.137,0,0,0-4.273,0v8.547a2.137,2.137,0,0,0,2.137,2.137h8.547a2.137,2.137,0,1,0,0-4.273Z" transform="translate(0 -350.121)"/><path class="a" d="M160.137,348A2.137,2.137,0,0,0,158,350.137v3.739a2.137,2.137,0,1,0,4.273,0v-3.739A2.137,2.137,0,0,0,160.137,348Z" transform="translate(-141.12 -310.822)"/><path class="a" d="M402.683,0h-8.547a2.137,2.137,0,0,0,0,4.273h6.41v6.41a2.137,2.137,0,1,0,4.273,0V2.137A2.137,2.137,0,0,0,402.683,0Z" transform="translate(-350.121)"/><path class="a" d="M317.137,348A2.137,2.137,0,0,0,315,350.137v3.739a2.137,2.137,0,1,0,4.273,0v-3.739A2.137,2.137,0,0,0,317.137,348Z" transform="translate(-281.348 -310.822)"/><path class="a" d="M52.562,101.153h-6.2V82.137a2.137,2.137,0,0,0-4.273,0v19.016H37.926V82.137a2.137,2.137,0,0,0-4.273,0v19.016H29.379V82.137a2.137,2.137,0,0,0-4.273,0v19.016H21.153V82.137a2.137,2.137,0,0,0-4.273,0v19.016H12.927V82.137a2.137,2.137,0,0,0-4.273,0v19.016H2.137a2.137,2.137,0,0,0,0,4.273H52.562a2.137,2.137,0,0,0,0-4.273Z" transform="translate(0 -71.453)"/><path class="a" d="M396.137,356.012a2.137,2.137,0,0,0,2.137-2.137v-3.739a2.137,2.137,0,1,0-4.273,0v3.739A2.137,2.137,0,0,0,396.137,356.012Z" transform="translate(-351.908 -310.822)"/><path class="a" d="M402.683,392a2.137,2.137,0,0,0-2.137,2.137v6.41h-6.41a2.137,2.137,0,0,0,0,4.273h8.547a2.137,2.137,0,0,0,2.137-2.137v-8.547A2.137,2.137,0,0,0,402.683,392Z" transform="translate(-350.121 -350.121)"/></svg>