<svg xmlns="http://www.w3.org/2000/svg" width="64.435" height="46.134" viewBox="0 0 64.435 46.134"><defs><style>.a{fill:#f5f5f5;}.b{fill:#3d1a57;}.c{opacity:0.2;}.d{fill:#263238;}.e{opacity:0.3;}.f{fill:#e0e0e0;}.g{fill:#ebebeb;}.h{fill:#37474f;}.i{fill:#455a64;}.j,.k{fill:#fff;}.k{opacity:0.5;}</style></defs><g transform="translate(-22.312 -69.368)"><g transform="translate(22.312 81.84)"><path class="a" d="M31.749,216.128c12.582,6.572,32.982,6.572,45.562,0s12.583-17.23,0-23.8-32.981-6.574-45.562,0S19.167,209.555,31.749,216.128Z" transform="translate(-22.312 -187.396)"/></g><g transform="translate(29.275 81.623)"><path class="b" d="M94.517,295.119a12.564,12.564,0,0,0-.847-3.606,5.7,5.7,0,0,0-3.724-3.717c-1.667-.353-2.3.518-2.162,1.5s1.536,1.735,2.482,2.563a11.093,11.093,0,0,1,3.184,4.762l.941.1Z" transform="translate(-85.59 -273.495)"/><path class="c" d="M94.517,295.119a12.564,12.564,0,0,0-.847-3.606,5.7,5.7,0,0,0-3.724-3.717c-1.667-.353-2.3.518-2.162,1.5s1.536,1.735,2.482,2.563a11.093,11.093,0,0,1,3.184,4.762l.941.1Z" transform="translate(-85.59 -273.495)"/><path class="a" d="M101.784,299.619h0a.071.071,0,0,1-.066-.074A9.079,9.079,0,0,0,96.8,291.2a.068.068,0,0,1-.035-.092.071.071,0,0,1,.092-.035,9.226,9.226,0,0,1,5,8.479.07.07,0,0,1-.074.066Z" transform="translate(-93.333 -276.38)"/><path class="b" d="M81.054,335.951a3.756,3.756,0,0,1-2.49.353,2.274,2.274,0,0,1-1.971-2.316c-.13-1.022-.875-.558-1.893-.977a1.786,1.786,0,0,1-.958-2.25,2.309,2.309,0,0,1,.515-.919,3.46,3.46,0,0,1-1.369-1.4,10.338,10.338,0,0,1-.7-1.535,3.124,3.124,0,0,1,2.458-.289,4.122,4.122,0,0,1,1.515.683,2.161,2.161,0,0,1,2.1-.632,1.381,1.381,0,0,1,.886.856,4.123,4.123,0,0,0,.2.5.838.838,0,0,0,.62.348,4.386,4.386,0,0,1,1.647.279,1.676,1.676,0,0,1,.6.67C83,330.708,81.054,335.951,81.054,335.951Z" transform="translate(-72.19 -306.875)"/><path class="a" d="M86.626,336.937a.073.073,0,0,1-.06-.033,16.207,16.207,0,0,0-8.623-6.811.072.072,0,1,1,.039-.14,16.376,16.376,0,0,1,8.7,6.871.071.071,0,0,1-.059.107Z" transform="translate(-77.095 -309.833)"/><path class="a" d="M95.1,351.055a.073.073,0,0,1-.053-.024.068.068,0,0,1,0-.1,4.608,4.608,0,0,1,2.723-1.054.068.068,0,0,1,.071.068.07.07,0,0,1-.068.071,4.542,4.542,0,0,0-2.634,1.019A.073.073,0,0,1,95.1,351.055Z" transform="translate(-91.836 -326.98)"/><path class="a" d="M107.854,334.306a.071.071,0,0,1-.07-.063,3.585,3.585,0,0,1,.31-1.8.07.07,0,1,1,.126.061,3.5,3.5,0,0,0-.3,1.728.071.071,0,0,1-.061.078Z" transform="translate(-102.803 -311.94)"/><path class="a" d="M412.249,193.034a.057.057,0,0,1-.054-.042c-.61-2.253.279-5.863,2.334-7.146a.056.056,0,0,1,.059.095c-2.017,1.256-2.884,4.806-2.285,7.022a.057.057,0,0,1-.039.07Z" transform="translate(-364.569 -185.839)"/><path class="a" d="M419.714,212.87h-.01a.057.057,0,0,1-.047-.064c.279-1.815,2.832-3.964,4.467-4.188a.057.057,0,0,1,.063.049.056.056,0,0,1-.047.063c-1.6.221-4.1,2.314-4.369,4.093A.057.057,0,0,1,419.714,212.87Z" transform="translate(-371.152 -205.438)"/><path class="a" d="M426.937,211.319a.056.056,0,0,1-.054-.052,2.626,2.626,0,0,0-.51-1.536.056.056,0,0,1,.081-.078,2.734,2.734,0,0,1,.539,1.611.054.054,0,0,1-.05.06Z" transform="translate(-376.917 -206.315)"/><path class="a" d="M428.431,225.583a.056.056,0,0,1-.021,0,4.206,4.206,0,0,0-2.312-.244.056.056,0,0,1-.029-.107,4.18,4.18,0,0,1,2.384.248.056.056,0,0,1,.029.074A.054.054,0,0,1,428.431,225.583Z" transform="translate(-376.637 -219.655)"/></g><g transform="translate(40.371 69.368)"><path class="d" d="M364.24,119.81l1.157.667v2.006l-1.157-.669Z" transform="translate(-339.13 -112.21)"/><path class="b" d="M208.582,68.132l-3.744,2.161V65.965a.579.579,0,0,0-.886-.51L185.435,76.15a1.828,1.828,0,0,0-1.075,1.5V95.692a1.822,1.822,0,0,0,1.075,1.5l.025.015a5.731,5.731,0,0,0,5.185,0l18.513-10.69a.69.69,0,0,0,.309-.535V68.288l-.29-.168A.663.663,0,0,0,208.582,68.132Z" transform="translate(-184.36 -65.368)"/><path class="b" d="M185.465,79.2c-1.427-.822-1.427-2.169,0-2.992l18.517-10.689a.659.659,0,0,1,.6-.011c.159.092.151.247-.02.345l-18,10.4c-.17.1-.45.255-.607.374-.838.627-.91,1.463-.191,2.055a2.9,2.9,0,0,0,.613.359,4.878,4.878,0,0,0,3.611-.107c.18-.081.455-.243.625-.341L208.62,68.2a.663.663,0,0,1,.6-.011c.161.092.152.247-.018.346l-18.524,10.69a5.748,5.748,0,0,1-5.185,0Z" transform="translate(-184.39 -65.435)"/><path class="e" d="M185.465,79.2c-1.427-.822-1.427-2.169,0-2.992l18.517-10.689a.659.659,0,0,1,.6-.011c.159.092.151.247-.02.345l-18,10.4c-.17.1-.45.255-.607.374-.838.627-.91,1.463-.191,2.055a2.9,2.9,0,0,0,.613.359,4.878,4.878,0,0,0,3.611-.107c.18-.081.455-.243.625-.341L208.62,68.2a.663.663,0,0,1,.6-.011c.161.092.152.247-.018.346l-18.524,10.69a5.748,5.748,0,0,1-5.185,0Z" transform="translate(-184.39 -65.435)"/><path class="a" d="M186.789,169.368a.072.072,0,0,1-.046-.017,2.3,2.3,0,0,1-.253-.257A.07.07,0,1,1,186.6,169a2.133,2.133,0,0,0,.237.24.071.071,0,0,1,.007.1.072.072,0,0,1-.053.024Z" transform="translate(-186.179 -154.516)"/><path class="a" d="M195.259,114.806a.07.07,0,0,1,0-.14,6.284,6.284,0,0,0,.7-.063.07.07,0,0,1,.08.059.071.071,0,0,1-.059.08,6.587,6.587,0,0,1-.709.064Zm-.7-.014h0a6.037,6.037,0,0,1-.7-.095.068.068,0,0,1-.056-.081.071.071,0,0,1,.082-.056,5.753,5.753,0,0,0,.688.092.07.07,0,1,1,0,.14Zm2.094-.2a.07.07,0,0,1-.067-.052.068.068,0,0,1,.047-.085,4.574,4.574,0,0,0,.651-.237.068.068,0,0,1,.092.034.07.07,0,0,1-.033.094,4.7,4.7,0,0,1-.671.244Zm-3.469-.075a.062.062,0,0,1-.022,0,4.241,4.241,0,0,1-.656-.279.07.07,0,0,1,.066-.123,4.246,4.246,0,0,0,.635.279.071.071,0,0,1-.022.14Zm4.746-.5a.07.07,0,0,1-.035-.13l.61-.352a.07.07,0,1,1,.07.12l-.61.352a.063.063,0,0,1-.042.014Zm1.22-.7a.071.071,0,0,1-.061-.035.07.07,0,0,1,.018-.1l.609-.353a.07.07,0,0,1,.095.027.068.068,0,0,1-.025.095l-.609.352a.066.066,0,0,1-.033.01Zm1.219-.7a.07.07,0,0,1-.06-.035.071.071,0,0,1,.025-.1l.609-.352a.073.073,0,0,1,.1.027.07.07,0,0,1-.027.095l-.609.352a.066.066,0,0,1-.04,0Zm1.219-.7a.07.07,0,0,1-.06-.035.071.071,0,0,1,.025-.1l.61-.352a.068.068,0,0,1,.095.027.07.07,0,0,1-.025.095l-.613.335a.077.077,0,0,1-.039.01Zm1.219-.7a.067.067,0,0,1-.06-.035.07.07,0,0,1,.025-.095l.61-.352a.068.068,0,0,1,.095.025.071.071,0,0,1-.025.1l-.61.352a.075.075,0,0,1-.042-.015Zm1.219-.7a.07.07,0,0,1-.035-.13l.61-.352a.068.068,0,0,1,.095.025.071.071,0,0,1-.025.1l-.61.352a.075.075,0,0,1-.042-.021Zm1.22-.7a.07.07,0,0,1-.035-.13l.609-.352a.07.07,0,0,1,.07.12l-.609.353a.08.08,0,0,1-.042-.027Zm1.219-.7a.073.073,0,0,1-.061-.035.071.071,0,0,1,.027-.095l.609-.352a.07.07,0,1,1,.07.12l-.609.352a.066.066,0,0,1-.042-.031Zm1.219-.7a.07.07,0,0,1-.035-.13l.609-.352a.071.071,0,0,1,.1.025.07.07,0,0,1-.027.095l-.609.352a.066.066,0,0,1-.042-.036Zm1.219-.7a.07.07,0,0,1-.035-.13l.61-.353a.071.071,0,0,1,.095.027.068.068,0,0,1-.025.095l-.61.352a.063.063,0,0,1-.042-.042Zm1.219-.7a.07.07,0,0,1-.06-.035.071.071,0,0,1,.025-.1l.609-.409a.071.071,0,0,1,.095.027.068.068,0,0,1-.025.095l-.61.352a.063.063,0,0,1-.04.01Zm1.219-.7a.07.07,0,0,1-.06-.035.071.071,0,0,1,.025-.1l.61-.352a.068.068,0,0,1,.095.025.071.071,0,0,1-.025.1l-.61.352a.077.077,0,0,1-.042-.053Zm1.22-.7a.071.071,0,0,1-.061-.035.07.07,0,0,1,.027-.095l.609-.352a.068.068,0,0,1,.095.025.071.071,0,0,1-.025.1l-.609.352a.08.08,0,0,1-.042-.061Zm1.219-.7a.073.073,0,0,1-.061-.035.071.071,0,0,1,.027-.095l.609-.352a.07.07,0,1,1,.07.121l-.609.352a.08.08,0,0,1-.047-.067Z" transform="translate(-191.342 -98.997)"/><path class="a" d="M353.654,100.623a.071.071,0,0,1-.07-.07v-.229l-.2.114a.068.068,0,0,1-.095-.025.071.071,0,0,1,.025-.1l.3-.175a.07.07,0,0,1,.1.061v.349A.07.07,0,0,1,353.654,100.623Z" transform="translate(-329.702 -95.28)"/><path class="a" d="M355.51,121.181a.071.071,0,0,1-.07-.07v-.7a.07.07,0,1,1,.14,0v.7A.07.07,0,0,1,355.51,121.181Zm0-1.4a.07.07,0,0,1-.07-.07v-.7a.071.071,0,0,1,.07-.07.07.07,0,0,1,.07.07v.7a.07.07,0,0,1-.07.067Zm0-1.4a.071.071,0,0,1-.07-.07v-.7a.07.07,0,1,1,.14,0v.7a.07.07,0,0,1-.07.066Zm0-1.4a.07.07,0,0,1-.07-.07v-.7a.07.07,0,1,1,.14,0v.7a.07.07,0,0,1-.07.063Zm0-1.4a.07.07,0,0,1-.07-.07v-.7a.071.071,0,0,1,.07-.07.07.07,0,0,1,.07.07v.7a.07.07,0,0,1-.07.061Zm0-1.4a.071.071,0,0,1-.07-.07v-.7a.07.07,0,1,1,.14,0v.7a.07.07,0,0,1-.07.06Zm0-1.4a.07.07,0,0,1-.07-.07v-.7a.07.07,0,0,1,.14,0v.7a.07.07,0,0,1-.07.057Zm0-1.4a.071.071,0,0,1-.07-.07v-.7a.07.07,0,1,1,.14,0v.7a.07.07,0,0,1-.07.056Zm0-1.4a.07.07,0,0,1-.07-.07v-.7a.07.07,0,1,1,.14,0v.7a.07.07,0,0,1-.07.053Zm0-1.4a.07.07,0,0,1-.07-.07v-.7a.071.071,0,0,1,.07-.07.07.07,0,0,1,.07.07v.7a.07.07,0,0,1-.07.052Z" transform="translate(-331.558 -101.859)"/><path class="a" d="M353.354,208.443a.07.07,0,0,1-.035-.13l.267-.155v-.308a.071.071,0,0,1,.07-.07.07.07,0,0,1,.07.07v.349a.07.07,0,0,1-.035.061l-.306.174A.08.08,0,0,1,353.354,208.443Z" transform="translate(-329.704 -187.9)"/><path class="a" d="M195.279,224.861a.07.07,0,0,1,0-.14,5.956,5.956,0,0,0,.7-.064.071.071,0,0,1,.08.059.07.07,0,0,1-.059.08,6.255,6.255,0,0,1-.709.066Zm-.7-.014h0a6.122,6.122,0,0,1-.7-.095.07.07,0,0,1-.056-.081.071.071,0,0,1,.082-.056,5.827,5.827,0,0,0,.688.092.07.07,0,0,1,0,.14Zm2.094-.2a.068.068,0,0,1-.067-.05.07.07,0,0,1,.047-.087,4.515,4.515,0,0,0,.651-.237.07.07,0,0,1,.059.127,4.678,4.678,0,0,1-.67.244.05.05,0,0,1-.028,0Zm-3.469-.074a.062.062,0,0,1-.022,0,4.315,4.315,0,0,1-.656-.279.07.07,0,0,1,.066-.123,4.39,4.39,0,0,0,.635.279.071.071,0,0,1-.022.14Zm4.746-.5a.07.07,0,0,1-.035-.13l.61-.352a.07.07,0,0,1,.07.12l-.618.346a.063.063,0,0,1-.035.015Zm1.22-.7a.07.07,0,0,1-.061-.035.068.068,0,0,1,.027-.095l.609-.352a.07.07,0,1,1,.07.12l-.617.346a.066.066,0,0,1-.035.01Zm1.219-.7a.071.071,0,0,1-.061-.035.07.07,0,0,1,.027-.095l.609-.353a.073.073,0,0,1,.1.027.071.071,0,0,1-.027.095l-.617.346a.066.066,0,0,1-.035,0Zm1.219-.7a.07.07,0,0,1-.06-.035.071.071,0,0,1,.025-.1l.609-.352a.071.071,0,0,1,.1.027.07.07,0,0,1-.027.095l-.614.335a.066.066,0,0,1-.038.011Zm1.219-.7a.07.07,0,0,1-.06-.035.071.071,0,0,1,.025-.1l.61-.352a.07.07,0,1,1,.07.121l-.61.352a.077.077,0,0,1-.043-.006Zm1.219-.7a.067.067,0,0,1-.06-.035.07.07,0,0,1,.025-.095l.61-.352a.07.07,0,0,1,.07.121l-.61.352a.075.075,0,0,1-.043-.014Zm1.219-.7a.07.07,0,0,1-.035-.13l.61-.352a.07.07,0,1,1,.07.12l-.61.353a.071.071,0,0,1-.043-.02Zm1.22-.7a.07.07,0,0,1-.035-.13l.609-.352a.07.07,0,1,1,.07.12l-.609.352a.066.066,0,0,1-.043-.024Zm1.219-.7a.07.07,0,0,1-.035-.13l.609-.352a.07.07,0,1,1,.07.12l-.609.352a.066.066,0,0,1-.043-.029Zm1.219-.7a.07.07,0,0,1-.035-.13l.61-.352a.07.07,0,1,1,.07.12l-.61.352a.066.066,0,0,1-.043-.035Zm1.219-.7a.07.07,0,0,1-.06-.035.071.071,0,0,1,.025-.1l.61-.352a.071.071,0,0,1,.095.027.068.068,0,0,1-.025.095l-.61.352a.063.063,0,0,1-.043-.04Zm1.219-.7a.07.07,0,0,1-.06-.035.071.071,0,0,1,.025-.1l.61-.352a.07.07,0,0,1,.07.121l-.61.352a.063.063,0,0,1-.043-.046Zm1.219-.7a.07.07,0,0,1-.06-.035.071.071,0,0,1,.025-.1l.61-.352a.068.068,0,0,1,.095.025.071.071,0,0,1-.025.1l-.61.352a.073.073,0,0,1-.043-.052Zm1.22-.7a.069.069,0,0,1-.035-.13l.609-.352a.071.071,0,0,1,.1.025.073.073,0,0,1-.027.1l-.609.352a.08.08,0,0,1-.043-.053Z" transform="translate(-191.36 -193.676)"/><path class="a" d="M186.792,279.515a.073.073,0,0,1-.046-.017,2.29,2.29,0,0,1-.253-.255.073.073,0,0,1,.008-.1.071.071,0,0,1,.1.01,2.132,2.132,0,0,0,.237.24.068.068,0,0,1,.007.1A.067.067,0,0,1,186.792,279.515Z" transform="translate(-186.182 -249.288)"/><path class="f" d="M211.085,78.222v-2.1a.547.547,0,0,0-.247-.429.151.151,0,0,1,0,.279l-19.218,11.1a1.457,1.457,0,0,0,.36.419,2.931,2.931,0,0,0,.611.359,4.369,4.369,0,0,0,1.8.293l16.453-9.492a.547.547,0,0,0,.246-.427Z" transform="translate(-190.607 -74.249)"/><path class="g" d="M210.029,75.028l-.085-.049a.547.547,0,0,0-.493,0L190.684,85.82a1.024,1.024,0,0,0,.127.595l19.218-11.1a.151.151,0,0,0,0-.286Z" transform="translate(-189.798 -73.587)"/><path class="f" d="M214.67,80.245a.55.55,0,0,0-.247-.427l-.085-.049a.55.55,0,0,0-.494,0l-19.4,11.207a3.02,3.02,0,0,0,.585.338,4.871,4.871,0,0,0,3.611-.109c.18-.081.455-.24.625-.338l15.408-8.9Z" transform="translate(-193.033 -77.708)"/><path class="g" d="M195.011,91.345l19.412-11.208a.151.151,0,0,0,0-.279l-.085-.049a.55.55,0,0,0-.494,0l-19.4,11.207A3.058,3.058,0,0,0,195.011,91.345Z" transform="translate(-193.033 -77.742)"/><path class="f" d="M224.1,85.026a.543.543,0,0,0-.247-.427l-.085-.05a.55.55,0,0,0-.494,0l-19.218,11.1a5.025,5.025,0,0,0,2.846-.328c.18-.081.455-.24.625-.338L224.1,85.41Z" transform="translate(-201.31 -81.821)"/><path class="g" d="M223.857,84.6l-.085-.05a.55.55,0,0,0-.494,0l-19.218,11.1a4.911,4.911,0,0,0,1.03.074l18.767-10.835a.151.151,0,0,0,0-.285Z" transform="translate(-201.31 -81.821)"/><path class="b" d="M316.6,121.372v4.108a.547.547,0,0,1-.246.427l-7.5,4.327h-.014a1.53,1.53,0,0,1-1.456.17c-.115-.059-.558-.314-.662-.384a1.416,1.416,0,0,1-.546-1.256,4.59,4.59,0,0,1,1.988-3.49h0l7.026-4.055.036-.025c.1-.08.087-.188-.036-.26l-.91-.526v-.669l2.069,1.195a.547.547,0,0,1,.241.378A.289.289,0,0,1,316.6,121.372Z" transform="translate(-289.175 -112.15)"/><path class="e" d="M316.6,121.372v4.108a.547.547,0,0,1-.246.427l-7.5,4.327h-.014a1.53,1.53,0,0,1-1.456.17c-.115-.059-.558-.314-.662-.384a1.416,1.416,0,0,1-.546-1.256,4.59,4.59,0,0,1,1.988-3.49h0l7.026-4.055.036-.025c.1-.08.087-.188-.036-.26l-.91-.526v-.669l2.069,1.195a.547.547,0,0,1,.241.378A.289.289,0,0,1,316.6,121.372Z" transform="translate(-289.175 -112.15)"/><path class="b" d="M320.155,130.287V134.4a.547.547,0,0,1-.246.427l-7.5,4.327H312.4c-.738.419-1.388.364-1.759-.07a1.621,1.621,0,0,1-.325-1.067,4.568,4.568,0,0,1,2.094-3.551l7.164-4.135.332-.191c.121-.071.222-.029.242.094A.289.289,0,0,1,320.155,130.287Z" transform="translate(-292.73 -121.065)"/><path class="h" d="M322.77,169.655c0,.558.388.778.868.5a1.917,1.917,0,0,0,.868-1.5c0-.558-.389-.779-.868-.5A1.915,1.915,0,0,0,322.77,169.655Z" transform="translate(-303.449 -153.7)"/><path class="h" d="M326.1,168.718l-.258-.148-1.255,2.109.295.17Z" transform="translate(-305.015 -154.163)"/><path class="i" d="M324.84,170.85c0,.558.389.778.868.5a1.919,1.919,0,0,0,.868-1.5c0-.558-.388-.778-.868-.5a1.924,1.924,0,0,0-.868,1.5Z" transform="translate(-305.23 -154.728)"/></g><g transform="translate(38.066 81.214)"><path class="i" d="M135.459,213.067a.663.663,0,0,1-.289-.523V195.878a.678.678,0,0,1,.309-.533L156.857,183a.579.579,0,0,1,.888.512v16.666a.684.684,0,0,1-.309.535l-21.379,12.343A.662.662,0,0,1,135.459,213.067Z" transform="translate(-135.17 -182.911)"/><path class="d" d="M136.325,274.206l-1.067-.616a.628.628,0,0,0-.091.3v16.672a.579.579,0,0,0,.888.512l.269-.156Z" transform="translate(-135.167 -260.932)"/><path class="h" d="M139.32,198.557v16.666c0,.2.14.279.309.177l21.379-12.343a.684.684,0,0,0,.308-.535V185.857c0-.2-.14-.279-.308-.177l-21.379,12.343A.681.681,0,0,0,139.32,198.557Z" transform="translate(-138.74 -185.255)"/><path class="b" d="M151.76,293.536v2.63c0,.2.14.279.309.177l3.434-1.982a.68.68,0,0,0,.309-.535V291.2c0-.2-.14-.279-.309-.177L152.073,293A.684.684,0,0,0,151.76,293.536Z" transform="translate(-149.444 -275.89)"/><path class="a" d="M155.828,296.781v-.161l-4.048,2.338v.162l1.087-.628v1.181l-1.087.628v.16l4.048-2.338v-.162l-1.087.628v-1.181Zm-1.226,1.89-1.6.921v-1.181l1.6-.921Z" transform="translate(-149.461 -280.747)"/><path class="j" d="M187.442,261.282v.229a.7.7,0,0,1-.348.632c-.229.14-.348.043-.348-.23v-.893a.7.7,0,0,1,.348-.632c.229-.133.348-.043.348.23v.168l-.221.127v-.184c0-.121-.046-.14-.12-.1a.251.251,0,0,0-.121.24v.926c0,.123.046.14.121.1a.249.249,0,0,0,.12-.237v-.244Z" transform="translate(-184.108 -247.239)"/><path class="j" d="M193.128,258.286l-.236.14-.04-.289-.286.166-.04.335-.215.123.237-1.852.342-.2Zm-.533-.236.225-.13-.112-.8Z" transform="translate(-188.895 -244.127)"/><path class="j" d="M199.429,255.045a.505.505,0,0,1-.021-.2v-.269c0-.159-.046-.191-.154-.13l-.08.046v.7l-.235.14v-1.72l.353-.2c.242-.14.346-.07.346.2v.14a.62.62,0,0,1-.154.436c.117-.011.155.1.155.279v.264a.455.455,0,0,0,.027.194Zm-.254-1.325v.528l.091-.053a.279.279,0,0,0,.14-.262v-.169c0-.123-.035-.156-.119-.107Z" transform="translate(-194.6 -241.224)"/><path class="j" d="M205.06,250.05l.37-.214c.233-.14.348-.052.348.223v.868a.68.68,0,0,1-.348.625l-.37.212Zm.233.11v1.226l.131-.075a.243.243,0,0,0,.12-.236v-.892c0-.123-.045-.14-.12-.1Z" transform="translate(-199.865 -238.157)"/><path class="f" d="M151.76,329.453v.624c0,.2.14.279.309.177l3.434-1.982a.684.684,0,0,0,.309-.535v-.624c0-.2-.14-.279-.309-.179l-3.43,1.984A.681.681,0,0,0,151.76,329.453Z" transform="translate(-149.444 -306.793)"/><path class="f" d="M186.31,309.5v.624c0,.2.14.279.309.179l3.435-1.984a.678.678,0,0,0,.309-.533v-.625c0-.2-.14-.279-.309-.177l-3.435,1.982A.684.684,0,0,0,186.31,309.5Z" transform="translate(-179.171 -289.622)"/><path class="f" d="M220.87,289.512v.624c0,.2.14.279.308.179l3.434-1.984a.68.68,0,0,0,.31-.54v-.624c0-.2-.14-.279-.31-.177l-3.434,1.982A.684.684,0,0,0,220.87,289.512Z" transform="translate(-208.906 -272.423)"/><path class="f" d="M255.42,269.593v.624c0,.2.14.279.309.179l3.435-1.984a.684.684,0,0,0,.308-.535v-.624c0-.2-.14-.279-.308-.179l-3.435,1.984A.681.681,0,0,0,255.42,269.593Z" transform="translate(-238.633 -255.289)"/><path class="b" d="M264.657,290.621l-.793.449a.411.411,0,0,0-.184.321v.241c0,.117.082.165.184.106l.787-.455a.406.406,0,0,0,.186-.32v-.241C264.841,290.609,264.76,290.561,264.657,290.621Z" transform="translate(-245.74 -275.563)"/><path class="b" d="M277.132,283.435l-.787.455a.409.409,0,0,0-.184.321v.24c0,.119.082.166.184.107l.787-.455a.406.406,0,0,0,.186-.321v-.24C277.317,283.424,277.235,283.377,277.132,283.435Z" transform="translate(-256.478 -269.381)"/><path class="b" d="M210.008,301.536l9.8-5.659c.17-.1.309-.02.309.177v.29a.684.684,0,0,1-.309.535l-9.8,5.659c-.17.1-.309.018-.309-.179v-.289A.681.681,0,0,1,210.008,301.536Z" transform="translate(-199.296 -280.071)"/></g><g transform="translate(61.936 83.572)"><g transform="translate(1.799 12.409)"><path class="f" d="M202.84,225.642l3.708-2.052,4.51,2.6-3.708,2.052Z" transform="translate(-202.84 -223.59)"/><ellipse class="f" cx="3.753" cy="2.132" rx="3.753" ry="2.132" transform="translate(7.887 4.075)"/></g><path class="b" d="M202.075,38.553a6.389,6.389,0,0,0-3.048-5.452,2.192,2.192,0,0,0-2.184-.286h0l-1.465.84h0c-.026.015-.053.03-.079.047l.016-.011-.024.014h0a2.461,2.461,0,0,0-.821,2.189,6.362,6.362,0,0,0,3.049,5.452,2.2,2.2,0,0,0,2.184.293l1.474-.843.05-.029.026-.015h0A2.467,2.467,0,0,0,202.075,38.553Z" transform="translate(-193.212 -32.559)"/><ellipse class="k" cx="2.546" cy="4.42" rx="2.546" ry="4.42" transform="translate(0 2.364) rotate(-27.66)"/><path class="b" d="M231.943,85.877c0-1.268-.361-1.855-.722-2.064s-.721-.037-.721,1.228.361,1.855.721,2.064S231.943,87.145,231.943,85.877Z" transform="translate(-226.914 -80.365)"/><path class="e" d="M231.943,85.877c0-1.268-.361-1.855-.722-2.064s-.721-.037-.721,1.228.361,1.855.721,2.064S231.943,87.145,231.943,85.877Z" transform="translate(-226.914 -80.365)"/><path class="b" d="M332.755,210.145a6.385,6.385,0,0,0-3.049-5.452,2.193,2.193,0,0,0-2.184-.286h0l-1.465.84h0q-.041.021-.08.047l.016-.01-.024.014h0a2.459,2.459,0,0,0-.82,2.188,6.362,6.362,0,0,0,3.049,5.452,2.206,2.206,0,0,0,2.184.294l1.477-.843.05-.029.026-.015h0A2.47,2.47,0,0,0,332.755,210.145Z" transform="translate(-315.449 -193.066)"/><ellipse class="k" cx="2.546" cy="4.42" rx="2.546" ry="4.42" transform="translate(8.442 13.451) rotate(-27.66)"/><path class="b" d="M362.623,257.479c0-1.268-.36-1.855-.722-2.063s-.721-.038-.721,1.228.361,1.855.721,2.063S362.623,258.748,362.623,257.479Z" transform="translate(-349.151 -240.881)"/><path class="e" d="M362.623,257.479c0-1.268-.36-1.855-.722-2.063s-.721-.038-.721,1.228.361,1.855.721,2.063S362.623,258.748,362.623,257.479Z" transform="translate(-349.151 -240.881)"/><path class="b" d="M234,103.04l-1.507.863-7.836,8.726,2.771,1.6,1.507-.864,7.836-8.726Z" transform="translate(-221.451 -98.419)"/><path class="e" d="M275.385,128.654l-7.836,8.726,1.507-.864,7.836-8.726Z" transform="translate(-261.57 -121.57)"/><path class="k" d="M232.5,116.4l2.77,1.6-7.836,8.726-2.771-1.6Z" transform="translate(-221.451 -110.916)"/></g></g></svg>