<svg xmlns="http://www.w3.org/2000/svg" width="41.585" height="41.585" viewBox="0 0 41.585 41.585"><defs><style>.a{fill:none;}.b{fill:#fff;}</style></defs><path class="a" d="M0,0H41.585V41.585H0Z"/><g transform="translate(5.198 3.465)"><path class="b" d="M17.663,10.465H10.733A1.738,1.738,0,0,1,9,8.733H9A1.738,1.738,0,0,1,10.733,7h6.931A1.738,1.738,0,0,1,19.4,8.733h0A1.738,1.738,0,0,1,17.663,10.465Z" transform="translate(1.396 1.663)"/><path class="b" d="M17.663,13.465H10.733A1.738,1.738,0,0,1,9,11.733H9A1.738,1.738,0,0,1,10.733,10h6.931A1.738,1.738,0,0,1,19.4,11.733h0A1.738,1.738,0,0,1,17.663,13.465Z" transform="translate(1.396 3.862)"/><path class="b" d="M31.59,4.6,28.99,2l-2.6,2.6L23.792,2l-2.6,2.6L18.594,2,16,4.6,13.4,2,10.8,4.6,8.2,2V26.258H4.733A1.738,1.738,0,0,0,3,27.99v3.465a5.191,5.191,0,0,0,5.2,5.2H28.99a5.191,5.191,0,0,0,5.2-5.2V2Zm-7.8,28.59H8.2a1.738,1.738,0,0,1-1.733-1.733V29.723H23.792Zm6.931-1.733a1.733,1.733,0,0,1-3.465,0V27.99a1.738,1.738,0,0,0-1.733-1.733H11.663V7.2h19.06Z" transform="translate(-3 -2)"/><circle class="b" cx="1.5" cy="1.5" r="1.5" transform="translate(22.802 9.119)"/><ellipse class="b" cx="1.5" cy="2" rx="1.5" ry="2" transform="translate(22.802 14.119)"/></g></svg>