<svg xmlns="http://www.w3.org/2000/svg" width="24.092" height="24.092" viewBox="0 0 24.092 24.092"><defs><style>.a{opacity:0.4;}.b{fill:none;}.c{fill:#fff;}</style></defs><g class="a"><path class="b" d="M0,0H24.092V24.092H0Z"/><path class="c" d="M21.484,11.617,12.45,2.582A2,2,0,0,0,11.034,2H4.008A2.014,2.014,0,0,0,2,4.008v7.027a2,2,0,0,0,.592,1.425l9.034,9.034a2,2,0,0,0,1.415.582,1.963,1.963,0,0,0,1.415-.592l7.027-7.027a1.963,1.963,0,0,0,.592-1.415A2.028,2.028,0,0,0,21.484,11.617ZM5.513,7.019A1.506,1.506,0,1,1,7.019,5.513,1.5,1.5,0,0,1,5.513,7.019Z" transform="translate(0.008 0.008)"/></g></svg>