<svg xmlns="http://www.w3.org/2000/svg" width="24" height="24" viewBox="0 0 24 24"><defs><style>.a{opacity:0.4;}.b{fill:none;}.c{fill:#fff;}</style></defs><g class="a"><path class="b" d="M0,0V24H24V0ZM1,13V7A3,3,0,0,1,4,4H16a3,3,0,0,1,3,3v7a2.006,2.006,0,0,1-2,2H4A3,3,0,0,1,1,13Zm22,5a2.006,2.006,0,0,1-2,2H5a1,1,0,0,1,0-2H21V8a1,1,0,0,1,2,0Z"/><path class="c" d="M23,8V18a2.006,2.006,0,0,1-2,2H5a1,1,0,0,1,0-2H21V8a1,1,0,0,1,2,0ZM4,16a3,3,0,0,1-3-3V7A3,3,0,0,1,4,4H16a3,3,0,0,1,3,3v7a2.006,2.006,0,0,1-2,2Zm3-6a3,3,0,1,0,3-3A3,3,0,0,0,7,10Z"/></g></svg>