<svg xmlns="http://www.w3.org/2000/svg" width="34.949" height="34.949" viewBox="0 0 34.949 34.949"><defs><style>.a{fill:none;}.b{fill:#3d1a57;}</style></defs><path class="a" d="M0,0H34.949V34.949H0Z"/><path class="b" d="M26.3,8.281H23.387a7.281,7.281,0,0,0-14.562,0H5.912A2.921,2.921,0,0,0,3,11.193V28.668A2.921,2.921,0,0,0,5.912,31.58H26.3a2.921,2.921,0,0,0,2.912-2.912V11.193A2.921,2.921,0,0,0,26.3,8.281ZM16.106,3.912a4.363,4.363,0,0,1,4.369,4.369H11.737A4.363,4.363,0,0,1,16.106,3.912Zm0,14.562a7.268,7.268,0,0,1-7.048-5.461,1.457,1.457,0,0,1,1.413-1.82A1.515,1.515,0,0,1,11.9,12.358a4.366,4.366,0,0,0,8.417,0,1.515,1.515,0,0,1,1.427-1.165,1.464,1.464,0,0,1,1.413,1.82A7.268,7.268,0,0,1,16.106,18.475Z" transform="translate(1.369 0.456)"/></svg>