<svg xmlns="http://www.w3.org/2000/svg" width="60.647" height="55.799" viewBox="0 0 60.647 55.799"><defs><style>.a{fill:#f5f5f5;}.b{fill:#e0e0e0;}.c{fill:#455a64;}.d,.n{fill:#3d1a57;}.e,.g,.o{opacity:0.2;}.f{opacity:0.4;}.h,.l{opacity:0.1;}.i{fill:#fff;}.j{fill:#37474f;}.k{fill:#263238;}.m{opacity:0.3;}.n,.o{mix-blend-mode:multiply;isolation:isolate;}.p{fill:#ffa8a7;}.q{fill:#f28f8f;}</style></defs><g transform="translate(-38.561 -104.885)"><g transform="translate(38.561 119.845)"><path class="a" d="M47.443,228.261c11.843,7.974,31.042,7.974,42.884,0s11.841-20.9,0-28.878-31.042-7.974-42.884,0S35.6,220.292,47.443,228.261Z" transform="translate(-38.561 -193.402)"/></g><g transform="translate(79.951 144.578)"><path class="b" d="M341.272,283.613a12.213,12.213,0,0,0,9.3,0c2.56-1.225,2.569-3.211,0-4.435a12.228,12.228,0,0,0-9.3,0C338.712,280.4,338.7,282.389,341.272,283.613Z" transform="translate(-339.349 -278.26)"/></g><g transform="translate(47.593 104.885)"><path class="c" d="M169.676,111.373a.076.076,0,0,1-.076-.074v-3.042a3.989,3.989,0,0,1,1.555-3.2.981.981,0,0,1,1-.063,1.667,1.667,0,0,1,.624,1.509v3.024a.073.073,0,0,1-.074.074.074.074,0,0,1-.076-.074V106.51a1.523,1.523,0,0,0-.549-1.379.814.814,0,0,0-.845.063,3.833,3.833,0,0,0-1.479,3.067V111.3a.074.074,0,0,1-.083.069Z" transform="translate(-156.485 -104.885)"/><path class="d" d="M206.976,129.306l-.333-14.3-2.434-1.4-.289,13.943Z" transform="translate(-185.005 -112.127)"/><g class="e" transform="translate(18.915 1.473)"><path d="M206.976,129.306l-.333-14.3-2.434-1.4-.289,13.943Z" transform="translate(-203.92 -113.6)"/></g><path class="d" d="M153.6,118.54l-.287,13.941,8.553-4.938.289-13.943Z" transform="translate(-142.948 -112.127)"/><g class="f" transform="translate(10.362 1.473)"><path d="M153.6,118.54l-.287,13.941,8.553-4.938.289-13.943Z" transform="translate(-153.31 -113.6)"/></g><path class="d" d="M169.42,126.838l.331,14.3,8.555-4.938-.333-14.3Z" transform="translate(-156.335 -119.024)"/><path class="d" d="M153.6,142.83l2.435,1.4.331,14.3-3.054-1.763Z" transform="translate(-142.948 -136.417)"/><g class="e" transform="translate(10.362 6.413)"><path d="M153.6,142.83l2.435,1.4.331,14.3-3.054-1.763Z" transform="translate(-153.31 -142.83)"/></g><path class="g" d="M156.364,182.774l-1.235-2.124-.221-8.65-.22,8.523h0l-1.377.488Z" transform="translate(-142.948 -160.657)"/><g class="e" transform="translate(15.326 7.409)"><path d="M182.986,148.768a.676.676,0,0,0-.306.529c0,.194.137.275.306.179a.676.676,0,0,0,.306-.539C183.292,148.743,183.155,148.662,182.986,148.768Z" transform="translate(-182.68 -148.721)"/></g><g class="e" transform="translate(18.358 5.642)"><path d="M200.926,138.309a.676.676,0,0,0-.306.529c0,.2.137.275.306.179a.676.676,0,0,0,.3-.529C201.23,138.292,201.095,138.213,200.926,138.309Z" transform="translate(-200.62 -138.268)"/></g><path class="c" d="M184.081,119.555a.076.076,0,0,1-.083-.083V116.43a3.99,3.99,0,0,1,1.553-3.2.981.981,0,0,1,1-.064,1.673,1.673,0,0,1,.625,1.511v3.034a.076.076,0,1,1-.15,0v-3.022a1.528,1.528,0,0,0-.549-1.381.811.811,0,0,0-.845.064,3.827,3.827,0,0,0-1.479,3.066v3.042A.076.076,0,0,1,184.081,119.555Z" transform="translate(-168.45 -111.679)"/><path class="c" d="M105.684,160.05a.063.063,0,0,1-.064-.063v-2.535a3.343,3.343,0,0,1,1.3-2.677.82.82,0,0,1,.845-.052,1.384,1.384,0,0,1,.524,1.264v2.535a.064.064,0,0,1-.127,0v-2.535a1.289,1.289,0,0,0-.46-1.156.7.7,0,0,0-.715.054,3.221,3.221,0,0,0-1.237,2.567v2.535a.063.063,0,0,1-.068.063Z" transform="translate(-103.318 -146.223)"/><path class="d" d="M136.929,175.017l-.279-11.974-2.038-1.173-.242,11.672Z" transform="translate(-127.209 -152.239)"/><g class="e" transform="translate(7.161 9.631)"><path d="M136.929,175.017l-.279-11.974-2.038-1.173-.242,11.672Z" transform="translate(-134.37 -161.87)"/></g><path class="d" d="M92.242,166,92,177.676l7.161-4.134L99.4,161.87Z" transform="translate(-92 -152.239)"/><g class="f" transform="translate(0 9.631)"><path d="M92.242,166,92,177.676l7.161-4.134L99.4,161.87Z" transform="translate(-92 -161.87)"/></g><path class="d" d="M105.49,172.944l.277,11.976,7.163-4.136-.279-11.974Z" transform="translate(-103.21 -158.006)"/><path class="d" d="M92.242,186.33,94.28,187.5l.277,11.976L92,198Z" transform="translate(-92 -172.565)"/><g class="e" transform="translate(0 13.765)"><path d="M92.242,186.33,94.28,187.5l.277,11.976L92,198Z" transform="translate(-92 -186.33)"/></g><path class="g" d="M94.557,219.78,93.523,218l-.184-7.24-.186,7.134L92,218.3Z" transform="translate(-92 -192.866)"/><g class="e" transform="translate(4.156 14.598)"><path class="c" d="M116.845,191.292a.571.571,0,0,0-.255.444c0,.169.115.23.255.149a.558.558,0,0,0,.257-.443C117.1,191.279,116.987,191.216,116.845,191.292Z" transform="translate(-116.59 -191.26)"/></g><g class="e" transform="translate(6.694 13.12)"><path class="c" d="M131.865,182.55a.564.564,0,0,0-.255.443c0,.169.115.23.255.15a.561.561,0,0,0,.255-.443C132.12,182.535,132.014,182.469,131.865,182.55Z" transform="translate(-131.61 -182.515)"/></g><path class="c" d="M117.793,166.894a.064.064,0,0,1-.063-.063v-2.544a3.337,3.337,0,0,1,1.3-2.675.821.821,0,0,1,.845-.054,1.387,1.387,0,0,1,.522,1.264v2.535a.061.061,0,0,1-.063.063.063.063,0,0,1-.063-.063v-2.535a1.284,1.284,0,0,0-.461-1.154.686.686,0,0,0-.713.054,3.22,3.22,0,0,0-1.237,2.566v2.544a.064.064,0,0,1-.069.063Z" transform="translate(-113.381 -151.903)"/></g><g transform="translate(42.175 129.862)"><path class="d" d="M72.737,260.682l.855-.438s-.144-1.617-.434-3.233c-.4-2.222-2.185-4.4-4.154-4.338s-1.506,1.54-.612,2.293C68.958,255.445,72.137,257.8,72.737,260.682Z" transform="translate(-66.325 -252.671)"/><g class="h" transform="translate(1.298 0)"><path d="M72.737,260.682l.855-.438s-.144-1.617-.434-3.233c-.4-2.222-2.185-4.4-4.154-4.338s-1.506,1.54-.612,2.293C68.958,255.445,72.137,257.8,72.737,260.682Z" transform="translate(-67.623 -252.671)"/></g><path class="i" d="M77.285,262.088h-.01a.108.108,0,0,1-.1-.117c.228-2.249-1.962-6.226-4.519-7.184a.106.106,0,1,1,.074-.2c2.63.989,4.891,5.08,4.658,7.413A.1.1,0,0,1,77.285,262.088Z" transform="translate(-70.453 -254.258)"/><path class="d" d="M66.953,280.709l.259-1.719a5.055,5.055,0,0,0-1.592-2.9,5.441,5.441,0,0,0-4.749-1.486c-1.333.4-1.141,1.705.035,2.148s2.765.423,4.225,1.44C66.126,278.9,67,280.111,66.953,280.709Z" transform="translate(-59.945 -270.798)"/><path class="i" d="M71.009,283.233a.107.107,0,0,1-.1-.088c-.377-2.119-3.671-4.344-6.084-4.109a.1.1,0,0,1-.115-.095.1.1,0,0,1,.095-.117c2.549-.254,5.915,2.028,6.309,4.283a.1.1,0,0,1-.085.123Z" transform="translate(-63.901 -274.389)"/></g><g transform="translate(48.754 115.997)"><path class="d" d="M263.622,193.235l-3.918-2.261-4.947-2.856h-.012a1.679,1.679,0,0,1-.722-1.565,1.719,1.719,0,0,0-.664-1.533l3.38,1.95.534.308,4.94,2.851.054.032a1.7,1.7,0,0,1,.686,1.545A1.683,1.683,0,0,0,263.622,193.235Z" transform="translate(-227.25 -182.588)"/><g class="h" transform="translate(26.11 2.432)"><path d="M263.622,193.235l-3.918-2.261-4.947-2.856h-.012a1.679,1.679,0,0,1-.722-1.565,1.719,1.719,0,0,0-.664-1.533l3.38,1.95.534.308,4.94,2.851.054.032a1.7,1.7,0,0,1,.686,1.545A1.683,1.683,0,0,0,263.622,193.235Z" transform="translate(-253.36 -185.02)"/></g><path class="d" d="M286.959,175.775v1.191a5.307,5.307,0,0,1-2.4,4.161,1.7,1.7,0,0,1-1.682.179l-.049-.029a1.709,1.709,0,0,1-.676-1.536,1.708,1.708,0,0,0-.686-1.545l-.054-.032-4.94-2.851a5.367,5.367,0,0,0,1.562-3.5V170.63Z" transform="translate(-246.454 -170.63)"/><path class="d" d="M218.217,189.193a1.713,1.713,0,0,0-1.663.189,4.028,4.028,0,0,0-.845.663,5.357,5.357,0,0,0-1.56,3.5,5.315,5.315,0,0,1-2.4,4.163l-2.4,1.388-8.922-5.153,2.4-1.388a5.312,5.312,0,0,0,2.4-4.163,5.3,5.3,0,0,1,2.4-4.161,1.7,1.7,0,0,1,1.678-.179h0l.057.032,3.38,1.95.534.308Z" transform="translate(-183.257 -181.658)"/><g class="f" transform="translate(17.163 2.243)"><path class="i" d="M218.217,189.193a1.713,1.713,0,0,0-1.663.189,4.028,4.028,0,0,0-.845.663,5.357,5.357,0,0,0-1.56,3.5,5.315,5.315,0,0,1-2.4,4.163l-2.4,1.388-8.922-5.153,2.4-1.388a5.312,5.312,0,0,0,2.4-4.163,5.3,5.3,0,0,1,2.4-4.161,1.7,1.7,0,0,1,1.678-.179h0l.057.032,3.38,1.95.534.308Z" transform="translate(-200.42 -183.901)"/></g><path class="c" d="M127.01,217.945c-.056-.372-.358-.507-.723-.3l-1.328.766-2.7,1.56a13.01,13.01,0,0,0-1.425.906,16.922,16.922,0,0,0-1.939,1.96,17.4,17.4,0,0,1-3.549,3.5l-6.133,3.541a1.619,1.619,0,0,0-.732,1.268v2.273c0,.433.282.627.646.466a1.634,1.634,0,0,1-1.377-.044l-8.143-4.7a1.619,1.619,0,0,1-.732-1.268V225.6a1.616,1.616,0,0,1,.732-1.268l6.133-3.549a17.253,17.253,0,0,0,3.549-3.5,16.943,16.943,0,0,1,1.945-1.955,13.067,13.067,0,0,1,1.423-.9l2.7-1.56,1.327-.767a1.617,1.617,0,0,1,1.464,0l8.148,4.705A1.638,1.638,0,0,1,127.01,217.945Z" transform="translate(-98.87 -204.945)"/><path class="j" d="M109.176,298.494s-10.3-5.893-10.3-5.944v2.324a1.616,1.616,0,0,0,.732,1.268l8.148,4.705a1.617,1.617,0,0,0,1.464,0l.348-.2Z" transform="translate(-98.878 -271.945)"/><path class="k" d="M173.543,245.3l-4.027,2.327a13.253,13.253,0,0,0-1.425.9c-1.829,1.477-3.657,4.409-5.486,5.462l-6.133,3.549a1.616,1.616,0,0,0-.732,1.268v2.273c0,.466.328.656.732.423l17.07-9.857a1.619,1.619,0,0,0,.732-1.268v-4.66C174.277,245.255,173.949,245.066,173.543,245.3Z" transform="translate(-146.129 -232.596)"/><path class="j" d="M183.041,228.2a13.013,13.013,0,0,0-1.425.906,10.957,10.957,0,0,0-1,.935.455.455,0,0,1-.526.076l-6.282-3.627a.254.254,0,0,1-.061-.414,11.019,11.019,0,0,1,1-.935,13.063,13.063,0,0,1,1.423-.9c.769-.446,1.631-.945,2.408-1.391a.652.652,0,0,1,.586,0l6.28,3.625a.179.179,0,0,1,0,.338Z" transform="translate(-161.026 -213.965)"/><path class="i" d="M179.421,224.657a.651.651,0,0,0-.586,0l-2.408,1.393a13.072,13.072,0,0,0-1.423.9,11.223,11.223,0,0,0-1,.933l-.03.039a.323.323,0,0,0,.091.079l6.282,3.627a.455.455,0,0,0,.526-.076,10.957,10.957,0,0,1,1-.935,13.016,13.016,0,0,1,1.425-.906l2.408-1.391.029-.02-.029-.02Z" transform="translate(-161.278 -215.468)"/><path class="k" d="M111.177,307.852c0,.22-.169.3-.367.186l-7.506-4.333a.784.784,0,0,1-.365-.608c0-.22.169-.3.365-.186l7.506,4.335A.784.784,0,0,1,111.177,307.852Z" transform="translate(-102.252 -280.51)"/><path class="b" d="M154.633,281.831v-.3l-.348-.025-.781-.455a.809.809,0,0,0-.732,0l-.527.3-.265-.02v.292h0a.252.252,0,0,0,.15.216l.984.568a.81.81,0,0,0,.732,0l.642-.37a.258.258,0,0,0,.15-.208h0Z" transform="translate(-143.004 -262.316)"/><path class="a" d="M153.508,279.29l.985.568a.223.223,0,0,1,0,.423l-.642.37a.809.809,0,0,1-.732,0l-.984-.568a.223.223,0,0,1,0-.422l.641-.37A.809.809,0,0,1,153.508,279.29Z" transform="translate(-143.007 -260.853)"/><path class="b" d="M139.37,273.011v-.3l-.348-.025-.788-.455a.809.809,0,0,0-.732,0l-.527.3-.265-.019v.291h0a.253.253,0,0,0,.152.215l.984.568a.8.8,0,0,0,.732,0l.641-.37a.255.255,0,0,0,.152-.208Z" transform="translate(-130.315 -254.986)"/><path class="a" d="M138.238,270.487l.984.57a.223.223,0,0,1,0,.422l-.641.377a.81.81,0,0,1-.732,0l-.984-.57a.223.223,0,0,1,0-.423l.641-.37A.809.809,0,0,1,138.238,270.487Z" transform="translate(-130.318 -253.54)"/><path class="b" d="M169.872,290.621v-.3l-.338-.025-.789-.455a.81.81,0,0,0-.732,0l-.526.3-.267-.02v.292h0a.253.253,0,0,0,.15.216l.985.568a.81.81,0,0,0,.732,0l.641-.37a.255.255,0,0,0,.15-.208h0Z" transform="translate(-155.668 -269.62)"/><path class="a" d="M168.7,288.08l.984.568a.223.223,0,0,1,0,.422l-.641.37a.81.81,0,0,1-.732,0l-.985-.568a.223.223,0,0,1,0-.423l.642-.37A.81.81,0,0,1,168.7,288.08Z" transform="translate(-155.63 -268.158)"/><path class="b" d="M166.79,274.8v-.3l-.348-.025-.788-.455a.81.81,0,0,0-.732,0l-.527.3-.265-.02v.292h0a.254.254,0,0,0,.15.216l.985.568a.81.81,0,0,0,.732,0l.641-.37a.262.262,0,0,0,.152-.208h0Z" transform="translate(-153.101 -256.474)"/><path class="a" d="M165.633,272.256l.984.568a.223.223,0,0,1,0,.423l-.641.37a.81.81,0,0,1-.732,0l-.989-.568a.223.223,0,0,1,0-.423l.642-.37A.809.809,0,0,1,165.633,272.256Z" transform="translate(-153.079 -255.007)"/><path class="b" d="M151.56,265.981v-.3l-.348-.025-.788-.455a.81.81,0,0,0-.732,0l-.527.3-.265-.019v.284h0a.252.252,0,0,0,.15.216l.985.568a.809.809,0,0,0,.732,0l.641-.37a.254.254,0,0,0,.15-.208h0Z" transform="translate(-140.445 -249.144)"/><path class="a" d="M150.461,263.451l.984.57a.223.223,0,0,1,0,.423l-.632.37a.809.809,0,0,1-.732,0l-.985-.57a.223.223,0,0,1,0-.422l.642-.37A.809.809,0,0,1,150.461,263.451Z" transform="translate(-140.481 -247.692)"/><path class="b" d="M182.02,283.591v-.3l-.348-.025-.788-.455a.809.809,0,0,0-.732,0l-.527.3-.265-.02v.292h0a.257.257,0,0,0,.152.216l.984.568a.81.81,0,0,0,.732,0l.642-.37a.259.259,0,0,0,.15-.208h0Z" transform="translate(-165.757 -263.778)"/><path class="a" d="M180.888,281.05l.985.568a.223.223,0,0,1,0,.422l-.642.37a.81.81,0,0,1-.732,0l-.984-.568a.223.223,0,0,1,0-.422l.641-.37A.809.809,0,0,1,180.888,281.05Z" transform="translate(-165.76 -262.316)"/><path class="b" d="M142.42,288.885v-.3l-.348-.025-.788-.455a.8.8,0,0,0-.732,0l-.527.3-.265-.02v.3h0a.257.257,0,0,0,.15.216l.985.568a.809.809,0,0,0,.732,0l.641-.37a.262.262,0,0,0,.152-.208h0Z" transform="translate(-132.849 -268.176)"/><path class="a" d="M141.28,286.35l.984.568a.223.223,0,0,1,0,.423l-.641.37a.81.81,0,0,1-.732,0l-.985-.568a.223.223,0,0,1,0-.422l.642-.37A.809.809,0,0,1,141.28,286.35Z" transform="translate(-132.844 -266.72)"/><path class="b" d="M127.222,280.071v-.3l-.338-.025-.789-.455a.809.809,0,0,0-.732,0l-.526.3-.267-.02v.292h0a.253.253,0,0,0,.15.216l.985.568a.809.809,0,0,0,.732,0l.641-.37a.255.255,0,0,0,.15-.208h0Z" transform="translate(-120.226 -260.853)"/><path class="a" d="M126.048,277.549l.985.568a.223.223,0,0,1,0,.423l-.641.362a.809.809,0,0,1-.732,0l-.985-.568a.223.223,0,0,1,0-.423l.641-.37A.81.81,0,0,1,126.048,277.549Z" transform="translate(-120.188 -259.403)"/><path class="b" d="M157.659,297.683v-.3l-.348-.025-.789-.463a.8.8,0,0,0-.732,0l-.527.3-.262-.022v.292h0a.259.259,0,0,0,.152.216l.984.568a.81.81,0,0,0,.732,0l.641-.37a.262.262,0,0,0,.152-.208h0Z" transform="translate(-145.514 -275.481)"/><path class="a" d="M156.483,295.134l.984.568a.223.223,0,0,1,0,.422l-.646.37a.809.809,0,0,1-.732,0l-.984-.568a.223.223,0,0,1,0-.423l.641-.37A.809.809,0,0,1,156.483,295.134Z" transform="translate(-145.475 -274.018)"/><path class="b" d="M130.22,295.9v-.3l-.348-.025-.788-.456a.809.809,0,0,0-.732,0l-.527.3-.265-.019v.3h0a.253.253,0,0,0,.152.215l.984.57a.81.81,0,0,0,.732,0l.642-.37a.259.259,0,0,0,.15-.21Z" transform="translate(-122.711 -274.008)"/><path class="a" d="M129.088,293.36l.985.57a.223.223,0,0,1,0,.423l-.642.37a.81.81,0,0,1-.732,0l-.984-.568a.223.223,0,0,1,0-.423l.641-.372A.81.81,0,0,1,129.088,293.36Z" transform="translate(-122.715 -272.545)"/><path class="b" d="M114.99,287.091v-.3l-.348-.025-.788-.455a.81.81,0,0,0-.732,0l-.527.3-.265-.02v.292h0a.253.253,0,0,0,.15.216l.985.568a.81.81,0,0,0,.732,0l.641-.37a.262.262,0,0,0,.152-.208h0Z" transform="translate(-110.055 -266.687)"/><path class="a" d="M113.85,284.566l.984.568a.223.223,0,0,1,0,.423l-.641.362a.809.809,0,0,1-.732,0l-.985-.568a.223.223,0,0,1,0-.423l.639-.362A.81.81,0,0,1,113.85,284.566Z" transform="translate(-110.05 -265.237)"/><path class="b" d="M145.45,304.723v-.3l-.346-.025-.789-.456a.809.809,0,0,0-.732,0l-.527.3-.265-.019v.292h0a.252.252,0,0,0,.15.215l.984.57a.809.809,0,0,0,.732,0l.642-.37a.255.255,0,0,0,.15-.21Z" transform="translate(-135.367 -281.337)"/><path class="a" d="M144.318,302.15l.985.57a.223.223,0,0,1,0,.423l-.642.37a.81.81,0,0,1-.732,0l-.984-.568a.223.223,0,0,1,0-.422l.641-.372A.809.809,0,0,1,144.318,302.15Z" transform="translate(-135.371 -279.85)"/><path class="b" d="M162.03,253.6h0l-.063-.259-.26-.022-.845-.492a1.007,1.007,0,0,0-1.2.1.529.529,0,0,0-.118.211h-.074l.066.274h0a.759.759,0,0,0,.377.455l1.038.6a.448.448,0,0,0,.526-.076q.245-.262.492-.541A.27.27,0,0,0,162.03,253.6Z" transform="translate(-149.228 -238.809)"/><path class="a" d="M160.816,252.927l-1.038-.6a.6.6,0,0,1-.252-.936,1,1,0,0,1,1.2-.1l1.038.6a.267.267,0,0,1,.069.423q-.247.279-.492.541A.446.446,0,0,1,160.816,252.927Z" transform="translate(-149.159 -237.534)"/><path class="b" d="M193.352,271.709h0l-.063-.262h-.074a.92.92,0,0,0-.252-.21l-1.036-.6a.431.431,0,0,0-.517.085c-.169.181-.323.36-.483.532l-.147-.012.066.272h0a.266.266,0,0,0,.13.169l1.036.6a1.028,1.028,0,0,0,1.213-.091A.507.507,0,0,0,193.352,271.709Z" transform="translate(-175.246 -253.694)"/><path class="a" d="M191.942,270.7l-1.036-.6a.255.255,0,0,1-.061-.414q.245-.264.492-.541a.431.431,0,0,1,.517-.085l1.036.6c.406.233.526.661.265.948A1.033,1.033,0,0,1,191.942,270.7Z" transform="translate(-175.234 -252.381)"/><path class="b" d="M177.444,262.362h0l-.063-.255-.2-.013-1.242-.717a.539.539,0,0,0-.646.1c-.127.142-.252.281-.379.417a.41.41,0,0,0-.032.044h-.125l.064.267h0a.328.328,0,0,0,.169.213l1.33.767a.558.558,0,0,0,.656-.095c.127-.135.253-.275.379-.416A.338.338,0,0,0,177.444,262.362Z" transform="translate(-161.934 -245.987)"/><path class="a" d="M177.28,261.133c-.125.14-.252.281-.377.416a.561.561,0,0,1-.657.095l-1.33-.767a.319.319,0,0,1-.076-.517c.127-.137.252-.275.379-.417a.539.539,0,0,1,.646-.1l1.33.767a.338.338,0,0,1,.086.529Z" transform="translate(-161.917 -244.707)"/></g><g transform="translate(80.384 115.578)"><path class="d" d="M396.1,214.683l-3.953-2.283-.287,6.671,4.24,2.459Z" transform="translate(-383.419 -194.532)"/><path class="j" d="M416.95,230.513l1.976-1.141-1.185-6.162-.791.456Z" transform="translate(-404.269 -203.515)"/><path class="j" d="M418.926,258.847l-1.29-.167-.686,1.308Z" transform="translate(-404.269 -232.99)"/><path class="j" d="M418.926,258.847l-1.29-.167-.686,1.308Z" transform="translate(-404.269 -232.99)"/><path class="d" d="M418.926,258.847l-1.29-.167-.686,1.308Z" transform="translate(-404.269 -232.99)"/><path class="l" d="M418.926,258.847l-1.29-.167-.686,1.308Z" transform="translate(-404.269 -232.99)"/><path class="d" d="M417.636,229.2l-.686-5.995v7.3Z" transform="translate(-404.269 -203.515)"/><path class="g" d="M417.636,229.2l-.686-5.995v7.3Z" transform="translate(-404.269 -203.515)"/><path class="d" d="M393.56,210.156l.691-.051.1-.406,3.953,2.283h-.791v.456Z" transform="translate(-384.832 -192.288)"/><path class="g" d="M393.56,210.156l.691-.051.1-.406,3.953,2.283h-.791v.456Z" transform="translate(-384.832 -192.288)"/><path class="d" d="M408.4,223.381c0,.057-.042.083-.093.052a.2.2,0,0,1-.091-.159c0-.059.041-.083.091-.054A.2.2,0,0,1,408.4,223.381Z" transform="translate(-397.014 -203.513)"/><path class="m" d="M408.4,223.381c0,.057-.042.083-.093.052a.2.2,0,0,1-.091-.159c0-.059.041-.083.091-.054A.2.2,0,0,1,408.4,223.381Z" transform="translate(-397.014 -203.513)"/><path class="d" d="M401.464,219.224c0,.059-.042.083-.093.054a.2.2,0,0,1-.091-.169c0-.057.041-.083.091-.052A.2.2,0,0,1,401.464,219.224Z" transform="translate(-391.247 -200.052)"/><path class="m" d="M401.464,219.224c0,.059-.042.083-.093.054a.2.2,0,0,1-.091-.169c0-.057.041-.083.091-.052A.2.2,0,0,1,401.464,219.224Z" transform="translate(-391.247 -200.052)"/><path class="n" d="M413.094,220.619c0,.059-.042.083-.093.054a.2.2,0,0,1-.091-.161c0-.057.041-.081.091-.052A.2.2,0,0,1,413.094,220.619Z" transform="translate(-400.911 -201.219)"/><path class="o" d="M413.094,220.619c0,.059-.042.083-.093.054a.2.2,0,0,1-.091-.161c0-.057.041-.081.091-.052A.2.2,0,0,1,413.094,220.619Z" transform="translate(-400.911 -201.219)"/><path class="n" d="M406.094,216.505c0,.059-.042.083-.093.054a.2.2,0,0,1-.091-.161c0-.057.041-.083.091-.052A.2.2,0,0,1,406.094,216.505Z" transform="translate(-395.095 -197.8)"/><path class="o" d="M406.094,216.505c0,.059-.042.083-.093.054a.2.2,0,0,1-.091-.161c0-.057.041-.083.091-.052A.2.2,0,0,1,406.094,216.505Z" transform="translate(-395.095 -197.8)"/><path class="d" d="M417.741,223.21h-.791l.686,5.995,1.29.167Z" transform="translate(-404.269 -203.515)"/><path class="d" d="M397.75,209.7l-.1.406.1.507.2.117Z" transform="translate(-388.23 -192.288)"/><path class="p" d="M390.37,144.15c.549,0,1.655.179,2.228,2.691a19.725,19.725,0,0,1,.338,1.991c.154,1.183.338,2.16.483,3.279.02.155.095.613.113.755a15.584,15.584,0,0,1,.316,1.81c-.086.348-.287.734-1.065.813-.73-.235-.588-.348-.605-1a14.343,14.343,0,0,0,.122-1.584c-.281-1.847-.833-5-.833-5Z" transform="translate(-382.181 -137.816)"/><path class="c" d="M406.705,209.829a.054.054,0,0,1-.052-.044s-.137-.813-.306-1.425a1.041,1.041,0,0,0-.784-.723c-.068-.024-.132-.047-.188-.073a.053.053,0,1,1,.042-.1c.056.025.117.047.181.071a1.124,1.124,0,0,1,.845.793c.169.619.309,1.428.311,1.437a.054.054,0,0,1-.044.061Z" transform="translate(-394.624 -190.429)"/><path class="q" d="M405.4,200.838a2.887,2.887,0,0,0-.308.706c-.027.133-.242.015-.282-.169a5.794,5.794,0,0,1,0-.845,2.778,2.778,0,0,0-.091.8c.044.26.113.318.292.382s.169-.1.22-.314S405.4,200.838,405.4,200.838Z" transform="translate(-394.107 -184.668)"/><path class="c" d="M402.716,209.331v-1.582a1.053,1.053,0,0,0-.57-1.083c-.2-.118-.357-.155-.433-.106s-.066.181-.066.183v1.94a.052.052,0,0,1-.1,0v-1.935a.319.319,0,0,1,.115-.277c.115-.073.3-.037.541.1a1.147,1.147,0,0,1,.622,1.175v1.582a.052.052,0,1,1-.1,0Z" transform="translate(-391.464 -189.573)"/><path class="c" d="M405.243,210.94a.052.052,0,0,1-.052-.044L405,209.7a.052.052,0,0,1,.042-.061.054.054,0,0,1,.061.044l.2,1.193a.052.052,0,0,1-.042.061Z" transform="translate(-394.334 -192.235)"/><path class="p" d="M400.362,206.128c-.287-.117-.59-.338-.7-.218a.507.507,0,0,0,.228.8,1.433,1.433,0,0,0,1-.032Z" transform="translate(-389.81 -189.11)"/><path class="j" d="M387.91,143.8a2.537,2.537,0,0,1,2.3,1.063,13.8,13.8,0,0,1,.732,3.111s-.324.7-1.521.62Z" transform="translate(-380.137 -137.526)"/><path class="k" d="M342.844,268.573c-.213-.112-.35.161-.542.379a1.583,1.583,0,0,0-.38.568,1.191,1.191,0,0,0,.443.887,1.4,1.4,0,0,1,.649.874,1.192,1.192,0,0,0,.793,1,2.008,2.008,0,0,0,1.555,0c.3-.194.025-.406-.394-1.014a3.762,3.762,0,0,1-.975-2.075Z" transform="translate(-341.916 -241.189)"/><path class="p" d="M347.232,264.9l-.45.659a.635.635,0,0,0,.152.879l.013.008a.676.676,0,0,0,.862-.134l.7-.766Z" transform="translate(-345.866 -238.159)"/><path class="j" d="M357.741,188.76a21.784,21.784,0,0,1-.789,5.746c-.58,1.509-.918,2.435-1.1,2.748s-5.445,5.437-5.445,5.437a1.151,1.151,0,0,1-1.036-.931s2.157-3.666,2.625-4.418a10.478,10.478,0,0,1,2.121-1.9l-.15-6.576Z" transform="translate(-348.11 -174.887)"/><rect class="p" width="1.141" height="1.661" transform="translate(9.583 31.525) rotate(167.19)"/><path class="j" d="M371.666,188.76h-5.337a19.979,19.979,0,0,0-.2,2.353c-.041,2.314,2.111,6.517,2.111,6.517a8.8,8.8,0,0,0,.139,2.8,50.373,50.373,0,0,0,1.759,4.962,1.5,1.5,0,0,0,1.205-.35s-.712-6.334-.9-7.957c-.208-1.756-.74-4.962-.74-4.962a8.232,8.232,0,0,0,.955-1.144,5.721,5.721,0,0,0,1.014-2.219" transform="translate(-362.035 -174.887)"/><path class="p" d="M354.14,157.225a26.745,26.745,0,0,1,1.1-4.835l.727,3.062a22.151,22.151,0,0,0-.543,2.5,17.9,17.9,0,0,0-.321,2.834.559.559,0,0,0,.169.365,3.275,3.275,0,0,1,.526.782c.14.232.286.313.248.368a.308.308,0,0,1-.414.052,2.157,2.157,0,0,1-.387-.338,2.859,2.859,0,0,0,.279.87c.316.627.264.957-.613.772-.549-.117-.913-.551-1.058-1.851a11.236,11.236,0,0,1,.008-1.406C353.9,159.311,354.068,157.967,354.14,157.225Z" transform="translate(-351.819 -144.664)"/><path class="c" d="M359.448,143.884c-1.022.247-2.419.568-2.822,1.677a31.51,31.51,0,0,0-.845,3.211,1.823,1.823,0,0,0,1.743.338l.2-.664v2.978c.8.87,3.59,1.276,5.337,0v-5.555a1.9,1.9,0,0,0-1.859-2.028Z" transform="translate(-353.437 -137.559)"/><path class="j" d="M367.32,163.194l.512-1.614-.512,2.337Z" transform="translate(-363.027 -152.301)"/><path class="k" d="M372,117.164a.608.608,0,0,0-.507.169c-.216.221-.169.63,0,1.57l.668.078Z" transform="translate(-366.377 -115.386)"/><path class="k" d="M396.272,115.007a1.048,1.048,0,0,0,.417-.084c.2-.118.259.115.147.316a.958.958,0,0,1-.776.515c0-.029-.191-.522-.191-.522Z" transform="translate(-386.751 -113.502)"/><path class="p" d="M371.487,115.328c-.1.059-.24-.132-.363-.26a.429.429,0,0,0-.72.118c-.2.428.259,1,.529,1.183a.475.475,0,0,0,.554.049l.071,1.634a1.744,1.744,0,0,0,1.315,1c.96.13.762-.663.448-1.05v-.595a2.274,2.274,0,0,0,.73.037,1.873,1.873,0,0,0,.617-.8,3.623,3.623,0,0,0,.255-2.621,1.8,1.8,0,0,0-2.855-.918C371.131,113.7,371.487,115.328,371.487,115.328Z" transform="translate(-365.548 -111.724)"/><path class="k" d="M374.959,110.448c-.049,0-.24-.314-.363-.428-.169-.155.051-1.563.051-1.563a.969.969,0,0,1,.169-.889c.338-.353.994-.3,1.472-.313a4.3,4.3,0,0,0,1.712-.338c.676-.3.732-.338.816-.032a1.661,1.661,0,0,1-.289,1.442l-.221.36a1.814,1.814,0,0,1-.845.252,6.544,6.544,0,0,1-1.859-.282c-.183-.025-.223.154-.321.641C375.2,109.715,375.127,110.448,374.959,110.448Z" transform="translate(-369.02 -106.675)"/><path class="k" d="M372.268,115.336l-.6-.321a.338.338,0,0,1,.453-.15A.357.357,0,0,1,372.268,115.336Z" transform="translate(-366.641 -113.451)"/><path class="q" d="M379.881,136.532a7.245,7.245,0,0,1-1.2-.338,1.033,1.033,0,0,1-.431-.424,1.4,1.4,0,0,0,.245.507c.226.291,1.386.507,1.386.507Z" transform="translate(-372.109 -130.853)"/><path class="k" d="M386.309,126.876a.179.179,0,1,1-.179-.186A.183.183,0,0,1,386.309,126.876Z" transform="translate(-378.508 -123.307)"/><path class="k" d="M384.995,123.223l-.382.21a.226.226,0,0,1,.09-.3.211.211,0,0,1,.292.093Z" transform="translate(-377.375 -120.327)"/><path class="q" d="M387.356,134.84l.407.152a.215.215,0,0,1-.277.135A.228.228,0,0,1,387.356,134.84Z" transform="translate(-379.666 -130.08)"/><path class="k" d="M395.758,122.921l-.348-.267a.21.21,0,0,1,.3-.046A.228.228,0,0,1,395.758,122.921Z" transform="translate(-386.369 -119.878)"/><path class="k" d="M395.069,126.576a.179.179,0,1,1-.177-.186.181.181,0,0,1,.177.186Z" transform="translate(-385.788 -123.058)"/><path class="q" d="M391.039,127.36l-.169,1.06.588-.069Z" transform="translate(-382.596 -123.864)"/><path class="k" d="M391.768,289.219l-.036-.159c.117.022.615.845,1.112,1.212.543.4,1.014.629,1.256.806.324.238-.145.725-.943.769a2.419,2.419,0,0,1-1.34-.309c-.221-.21-.384-.561-.559-.713s-.534-.284-.654-.478a1.4,1.4,0,0,1-.069-.6c0-.21.014-.438.085-.434a.942.942,0,0,0,.029.122,1.381,1.381,0,0,0,.676.149C391.511,289.567,391.861,289.523,391.768,289.219Z" transform="translate(-382.311 -258.235)"/><path class="k" d="M387.85,208.833s-.473-3.367-.6-3.887a5.241,5.241,0,0,0,1.053-.755,8.543,8.543,0,0,1-.72.9Z" transform="translate(-379.588 -187.709)"/><path class="k" d="M373.89,231a15.289,15.289,0,0,0,.8,1.731s-.057,1.08-.049,1.3l-.3.262a6.7,6.7,0,0,1,.133-1.457A8.8,8.8,0,0,1,373.89,231Z" transform="translate(-368.486 -209.988)"/></g></g></svg>