<svg xmlns="http://www.w3.org/2000/svg" width="41.078" height="41.078" viewBox="0 0 41.078 41.078"><defs><style>.a{fill:none;}.b{fill:#fff;}</style></defs><path class="a" d="M0,0H41.078V41.078H0Z"/><path class="b" d="M35.222,18.4l-15.4-15.4A3.4,3.4,0,0,0,17.4,2H5.423A3.433,3.433,0,0,0,2,5.423V17.4a3.416,3.416,0,0,0,1.01,2.43l15.4,15.4a3.4,3.4,0,0,0,2.413.993,3.347,3.347,0,0,0,2.413-1.01L35.222,23.241a3.347,3.347,0,0,0,1.01-2.413A3.457,3.457,0,0,0,35.222,18.4ZM7.991,10.558a2.567,2.567,0,1,1,2.567-2.567A2.564,2.564,0,0,1,7.991,10.558Z" transform="translate(1.423 1.423)"/></svg>