<svg xmlns="http://www.w3.org/2000/svg" width="34.949" height="34.949" viewBox="0 0 34.949 34.949"><defs><style>.a{fill:none;}.b{fill:#3d1a57;}</style></defs><path class="a" d="M0,0H34.949V34.949H0Z"/><path class="b" d="M30.265,15.95,17.159,2.845A2.894,2.894,0,0,0,15.106,2H4.912A2.921,2.921,0,0,0,2,4.912V15.106a2.906,2.906,0,0,0,.859,2.068L15.965,30.28a2.894,2.894,0,0,0,2.053.845,2.847,2.847,0,0,0,2.053-.859L30.265,20.072a2.847,2.847,0,0,0,.859-2.053A2.941,2.941,0,0,0,30.265,15.95ZM7.1,9.281A2.184,2.184,0,1,1,9.281,7.1,2.181,2.181,0,0,1,7.1,9.281Z" transform="translate(0.912 0.912)"/></svg>