<svg xmlns="http://www.w3.org/2000/svg" width="39" height="39" viewBox="0 0 39 39"><defs><style>.a{fill:none;}.b{fill:#fcb017;}</style></defs><g transform="translate(-0.257 -0.092)"><g transform="translate(0 0)"><rect class="a" width="39" height="39" transform="translate(0.257 0.092)"/><rect class="a" width="39" height="39" transform="translate(0.257 0.092)"/></g><g transform="translate(1.444 4.847)"><path class="b" d="M21.85,10.974h0a1.669,1.669,0,0,1,0,2.375l-3.223,3.223H34.235a1.7,1.7,0,0,1,1.7,1.7h0a1.7,1.7,0,0,1-1.7,1.7H18.626l3.223,3.223a1.669,1.669,0,0,1,0,2.375h0a1.669,1.669,0,0,1-2.375,0l-6.091-6.091a1.69,1.69,0,0,1,0-2.392l6.091-6.108A1.669,1.669,0,0,1,21.85,10.974ZM5.393,30.145H17.269a1.7,1.7,0,0,1,1.7,1.7h0a1.7,1.7,0,0,1-1.7,1.7H5.393A3.4,3.4,0,0,1,2,30.145V6.393A3.4,3.4,0,0,1,5.393,3H17.269a1.7,1.7,0,0,1,1.7,1.7h0a1.7,1.7,0,0,1-1.7,1.7H5.393Z" transform="translate(-2 -3)"/></g></g></svg>