<svg xmlns="http://www.w3.org/2000/svg" width="43" height="43" viewBox="0 0 43 43"><defs><style>.a,.c{fill:#fcb017;}.a{opacity:0.2;}.b{fill:none;}</style></defs><g transform="translate(-56 -318)"><circle class="a" cx="21.5" cy="21.5" r="21.5" transform="translate(56 318)"/><g transform="translate(67 329)"><path class="b" d="M0,0H21V21H0Z"/><path class="c" d="M18.984,10.382,11.109,2.507A1.739,1.739,0,0,0,9.875,2H3.75A1.755,1.755,0,0,0,2,3.75V9.875a1.746,1.746,0,0,0,.516,1.243l7.875,7.875a1.739,1.739,0,0,0,1.234.507,1.711,1.711,0,0,0,1.234-.516l6.125-6.125a1.711,1.711,0,0,0,.516-1.234A1.767,1.767,0,0,0,18.984,10.382ZM5.063,6.375A1.313,1.313,0,1,1,6.375,5.063,1.311,1.311,0,0,1,5.063,6.375Z" transform="translate(-0.25 -0.25)"/></g></g></svg>