<svg xmlns="http://www.w3.org/2000/svg" width="38.626" height="38.626" viewBox="0 0 38.626 38.626"><defs><style>.a{fill:none;}.b{fill:#fcb017;}</style></defs><g transform="translate(0 0)"><path class="a" d="M0,0H38.626V38.626H0ZM0,0H38.626V38.626H0Z" transform="translate(0 0)"/><path class="b" d="M26.532,12.266H24.922V9.047a8.047,8.047,0,0,0-16.094,0v3.219H7.219A3.228,3.228,0,0,0,4,15.485V31.579A3.228,3.228,0,0,0,7.219,34.8H26.532a3.228,3.228,0,0,0,3.219-3.219V15.485A3.228,3.228,0,0,0,26.532,12.266ZM11.886,9.047a4.989,4.989,0,0,1,9.978,0v3.219H11.886ZM21.7,25.141H18.485V28.36a1.609,1.609,0,0,1-3.219,0V25.141H12.047a1.609,1.609,0,1,1,0-3.219h3.219V18.7a1.609,1.609,0,0,1,3.219,0v3.219H21.7a1.609,1.609,0,1,1,0,3.219Z" transform="translate(2.438 0.609)"/></g></svg>