<svg xmlns="http://www.w3.org/2000/svg" width="38.626" height="38.626" viewBox="0 0 38.626 38.626"><defs><style>.a{fill:none;}.b{fill:#fcb017;}</style></defs><g transform="translate(0 0)"><path class="a" d="M0,0H38.626V38.626H0ZM0,0H38.626V38.626H0Z" transform="translate(0 0)"/><path class="b" d="M30.969,4H5.219a3.194,3.194,0,0,0-3.2,3.219L2,26.532A3.208,3.208,0,0,0,5.219,29.75h25.75a3.208,3.208,0,0,0,3.219-3.219V7.219A3.208,3.208,0,0,0,30.969,4Zm-17.7,12.07a2.411,2.411,0,0,1-2.414,2.414H7.633V20.5a1.207,1.207,0,0,1-2.414,0v-6.84a1.614,1.614,0,0,1,1.609-1.609h4.023a2.411,2.411,0,0,1,2.414,2.414ZM18.9,20.5a1.207,1.207,0,0,1-2.414,0V13.254a1.207,1.207,0,0,1,2.414,0Zm12.07-.064a1.269,1.269,0,0,1-2.3.74l-3.718-5.1v4.635a1,1,0,0,1-1,1h-.016a1.006,1.006,0,0,1-1.014-1V13.383a1.333,1.333,0,0,1,1.336-1.336,1.3,1.3,0,0,1,1.078.563l3.621,5.07V13.045a1,1,0,0,1,1-1h.016a1,1,0,0,1,1,1ZM7.633,14.461h3.219V16.07H7.633Z" transform="translate(1.218 2.438)"/></g></svg>