<svg xmlns="http://www.w3.org/2000/svg" width="38.626" height="38.626" viewBox="0 0 38.626 38.626"><defs><style>.a{fill:none;}.b{fill:#fcb017;}</style></defs><g transform="translate(0 0)"><path class="a" d="M0,0H38.626V38.626H0Z" transform="translate(0 0)"/><path class="b" d="M18.094,2A16.094,16.094,0,1,0,34.188,18.094,16.1,16.1,0,0,0,18.094,2Zm0,4.828a4.828,4.828,0,1,1-4.828,4.828A4.822,4.822,0,0,1,18.094,6.828Zm0,22.853A11.589,11.589,0,0,1,8.438,24.5c.048-3.2,6.438-4.957,9.656-4.957,3.2,0,9.608,1.754,9.656,4.957A11.589,11.589,0,0,1,18.094,29.682Z" transform="translate(1.219 1.219)"/></g></svg>