<svg xmlns="http://www.w3.org/2000/svg" width="70" height="70" viewBox="0 0 70 70"><defs><style>.a{fill:none;}.b{fill:#fcb017;}</style></defs><g transform="translate(-0.76 -0.76)"><rect class="a" width="70" height="70" transform="translate(0.76 0.76)"/><path class="b" d="M59.735,13.65,29.808,43.577a2.98,2.98,0,0,1-4.22,0l-8.469-8.469a2.98,2.98,0,0,1,0-4.22h0a2.98,2.98,0,0,1,4.22,0l6.344,6.344,27.8-27.8a2.98,2.98,0,0,1,4.22,0h0A2.954,2.954,0,0,1,59.735,13.65Zm-27.8,42.227a23.946,23.946,0,0,1-4.01-47.554,23.707,23.707,0,0,1,14.933,2.334,3,3,0,0,0,3.5-.539h0a3,3,0,0,0-.718-4.788A29.93,29.93,0,1,0,31.933,61.862a29.633,29.633,0,0,0,10.205-1.8,3,3,0,0,0,1.047-4.938h0a2.932,2.932,0,0,0-3.112-.688A23.763,23.763,0,0,1,31.933,55.876Z" transform="translate(3.827 3.825)"/></g></svg>